<svg width="24.000000" height="24.000000" viewBox="0 0 24 24" fill="none" xmlns="http://www.w3.org/2000/svg" xmlns:xlink="http://www.w3.org/1999/xlink">
	<desc>
			Created with Pixso.
	</desc>
	<defs/>
	<g opacity="0.150000">
		<path d="M12 11C14.2 11 16 9.2 16 7C16 4.79 14.2 3 12 3C9.79 3 8 4.79 8 7C8 9.2 9.79 11 12 11Z" fill="#0A9CE9" fill-opacity="1.000000" fill-rule="evenodd"/>
	</g>
	<path d="M16 15C18.2 15 20 16.79 20 19L20 21L4 21L4 19C4 16.79 5.79 15 8 15L16 15ZM12 11C9.79 11 8 9.2 8 7C8 4.79 9.79 3 12 3C14.2 3 16 4.79 16 7C16 9.2 14.2 11 12 11Z" stroke="#0A9CE9" stroke-opacity="1.000000" stroke-width="1.500000" stroke-linejoin="round"/>
</svg>
